<svg xmlns="http://www.w3.org/2000/svg" xmlns:xlink="http://www.w3.org/1999/xlink" width="35" height="35" viewBox="0 0 35 35">
  <defs>
    <clipPath id="clip-path">
      <circle id="Ellipse_275" data-name="Ellipse 275" cx="17.5" cy="17.5" r="17.5" transform="translate(233 158)" fill="#fff"/>
    </clipPath>
    <clipPath id="clip-path-2">
      <rect id="Rectangle_4719" data-name="Rectangle 4719" width="22" height="22" transform="translate(296 142)" fill="#fff" stroke="#707070" stroke-width="1"/>
    </clipPath>
  </defs>
  <g id="Mask_Group_95" data-name="Mask Group 95" transform="translate(-233 -158)" clip-path="url(#clip-path)">
    <g id="svgexport-6_16_" data-name="svgexport-6 (16)" transform="translate(233 158)">
      <g id="Group_214" data-name="Group 214" transform="translate(0 0)">
        <g id="Group_211" data-name="Group 211">
          <circle id="XMLID_30_" cx="17.5" cy="17.5" r="17.5" transform="translate(0 0)" fill="#f5f5f5"/>
        </g>
      </g>
    </g>
    <g id="Mask_Group_209" data-name="Mask Group 209" transform="translate(-56 23)" clip-path="url(#clip-path-2)">
      <g id="search" transform="translate(296 142)">
        <path id="Path_10258" data-name="Path 10258" d="M4.876,13.295,4.11,16.154l-2.8.059A11.019,11.019,0,0,1,1.23,5.941h0L3.722,6.4,4.814,8.875a6.565,6.565,0,0,0,.062,4.42Z" fill="#fbbb00"/>
        <path id="Path_10259" data-name="Path 10259" d="M21.808,8.945a11,11,0,0,1-3.921,10.633h0l-3.139-.16L14.3,16.644A6.556,6.556,0,0,0,17.124,13.3H11.242V8.945H21.808Z" fill="#518ef8"/>
        <path id="Path_10260" data-name="Path 10260" d="M17.886,19.578h0A11,11,0,0,1,1.311,16.213l3.565-2.918a6.542,6.542,0,0,0,9.427,3.35Z" fill="#28b446"/>
        <path id="Path_10261" data-name="Path 10261" d="M18.021,2.532,14.458,5.45A6.541,6.541,0,0,0,4.814,8.875L1.231,5.941h0A11,11,0,0,1,18.021,2.532Z" fill="#f14336"/>
      </g>
    </g>
  </g>
</svg>
