<svg id="rescounts_logoo_events_new-01" data-name="rescounts logoo events new-01" xmlns="http://www.w3.org/2000/svg" width="103.999" height="40.761" viewBox="0 0 103.999 40.761">
  <g id="Group_10310" data-name="Group 10310" transform="translate(0 0)">
    <g id="Group_10308" data-name="Group 10308" transform="translate(22.03 20.579)">
      <path id="Path_26637" data-name="Path 26637" d="M312.76,276.175c-.952,0-1.914.01-2.865,0-.225,0-.307.041-.276.3a2.064,2.064,0,0,0,2.671,1.965,1.368,1.368,0,0,0,.952-.788.232.232,0,0,1,.276-.174c.686.01,1.382.01,2.067,0,.266-.01.235.1.164.276a3.882,3.882,0,0,1-3.449,2.743,5.587,5.587,0,0,1-2.558-.3,3.776,3.776,0,0,1-2.4-3,7.067,7.067,0,0,1,.194-4.042,3.987,3.987,0,0,1,3.817-2.64,4.893,4.893,0,0,1,1.586.154,3.9,3.9,0,0,1,2.825,3.254,10.507,10.507,0,0,1,.225,1.965c.01.225-.061.286-.276.286C314.714,276.165,313.742,276.175,312.76,276.175Zm-1.228-1.586c.553,0,1.115-.01,1.668,0,.184,0,.256-.051.235-.246a2.288,2.288,0,0,0-.491-1.218,1.808,1.808,0,0,0-2.036-.5,2.15,2.15,0,0,0-1.218,1.791c0,.184.092.174.215.174Z" transform="translate(-307.135 -268.192)" fill="#494948"/>
      <path id="Path_26638" data-name="Path 26638" d="M898.91,252.484c0-1.422.01-2.855-.01-4.278,0-.266.072-.327.317-.317.594.02,1.177.02,1.77,0,.246-.01.348.041.338.327-.021.624.01,1.259-.021,1.883-.02.327.1.368.379.368,1.474-.01,2.958,0,4.431-.01.266,0,.348.072.327.338a10.337,10.337,0,0,0,0,1.126c.01.256-.061.327-.307.327-1.484-.01-2.978,0-4.472-.01-.266,0-.358.051-.358.348.021,1.167.01,2.333.01,3.49a3.555,3.555,0,0,0,.143,1.085,1.176,1.176,0,0,0,1.249.87,1.237,1.237,0,0,0,1.279-.839,3.348,3.348,0,0,0,.164-1.146c0-.675.01-1.351,0-2.016-.01-.246.041-.338.307-.327.573.021,1.156.01,1.73.01.143,0,.256,0,.256.2-.031,1.044.061,2.1-.051,3.152a3.371,3.371,0,0,1-3.3,3.152,4.418,4.418,0,0,1-2.425-.44,3.309,3.309,0,0,1-1.73-3.029c-.061-1.443-.02-2.855-.031-4.267Z" transform="translate(-838.34 -247.888)" fill="#494948"/>
      <path id="Path_26639" data-name="Path 26639" d="M598.759,280.489a4.482,4.482,0,0,1-4-2.047c-1.136-1.8-1.105-5.24.86-6.908,1.8-1.535,5.772-1.607,7.2,1.2a5.724,5.724,0,0,1-.092,5.659A4.258,4.258,0,0,1,598.759,280.489Zm-2.221-4.984a4.794,4.794,0,0,0,.082,1,2.013,2.013,0,0,0,2.067,1.873,1.984,1.984,0,0,0,2.159-1.576,5.058,5.058,0,0,0-.031-2.732,2.163,2.163,0,0,0-4.083-.031A4.364,4.364,0,0,0,596.538,275.506Z" transform="translate(-564.643 -268.167)" fill="#494948"/>
      <path id="Path_26640" data-name="Path 26640" d="M802.585,271.944a3.086,3.086,0,0,1,1.965-1.4,4.4,4.4,0,0,1,1.791-.01,2.788,2.788,0,0,1,2.241,2.773c.031,2.221.01,4.452.021,6.672,0,.215-.092.235-.256.235q-.967-.015-1.934,0c-.246.01-.287-.092-.287-.317.01-1.8,0-3.6,0-5.4a3.663,3.663,0,0,0-.113-1.054,1.012,1.012,0,0,0-.767-.778,2.617,2.617,0,0,0-1.484.031,1.606,1.606,0,0,0-1.054,1.341,3.639,3.639,0,0,0-.061.819c0,1.678,0,3.357.01,5.035,0,.246-.041.338-.307.327-.624-.02-1.249-.01-1.863,0-.2,0-.286-.031-.286-.276q.015-4.482,0-8.965c0-.2.041-.287.256-.276.614.01,1.218.01,1.832,0,.215-.01.266.061.256.266-.01.317.01.634.021.952-.041.02-.031.041-.01.072A.142.142,0,0,0,802.585,271.944Z" transform="translate(-749.741 -268.136)" fill="#494948"/>
      <path id="Path_26641" data-name="Path 26641" d="M707.928,281.031a3.332,3.332,0,0,1-2.681,1.433,3.08,3.08,0,0,1-3.306-3.08c-.051-1.2-.02-2.395-.031-3.592,0-.921.01-1.852-.01-2.773,0-.225.031-.317.286-.317q.952.031,1.9,0c.235-.01.276.082.266.287-.01,1.791,0,3.582,0,5.373a4.3,4.3,0,0,0,.02.512,1.409,1.409,0,0,0,.972,1.4,1.847,1.847,0,0,0,2.006-.563,2.429,2.429,0,0,0,.461-1.535c0-1.689.01-3.377-.01-5.066,0-.368.1-.43.43-.42.573.031,1.156.02,1.73,0,.246-.01.3.072.287.307q-.015,4.467,0,8.934c0,.194-.031.287-.246.287-.614-.01-1.218-.01-1.832,0-.194,0-.256-.061-.246-.256C707.938,281.666,707.928,281.349,707.928,281.031Z" transform="translate(-661.501 -270.152)" fill="#494948"/>
      <path id="Path_26642" data-name="Path 26642" d="M406.235,276.973h1.034c.1,0,.194,0,.215.143a1.321,1.321,0,0,0,1.2,1.187,3.064,3.064,0,0,0,1.74-.113.753.753,0,0,0,.594-.7.858.858,0,0,0-.522-.87,7,7,0,0,0-1.433-.43,9.793,9.793,0,0,1-2.354-.839,2.467,2.467,0,0,1-1.4-2.7,2.23,2.23,0,0,1,1.075-1.719,4.411,4.411,0,0,1,1.955-.635,6.455,6.455,0,0,1,2.9.246,2.925,2.925,0,0,1,1.934,2.62c.01.154-.01.225-.184.225q-.982-.015-1.965,0c-.143,0-.184-.061-.225-.184a1.276,1.276,0,0,0-1.361-1.064,3.566,3.566,0,0,0-1.187.092.7.7,0,0,0-.133,1.351,13.437,13.437,0,0,0,2.241.757,15.5,15.5,0,0,1,1.525.481,2.663,2.663,0,0,1,.89,4.257,3.611,3.611,0,0,1-2.344,1.105,6.575,6.575,0,0,1-3.469-.368,3.082,3.082,0,0,1-1.985-2.466c-.041-.287-.02-.45.327-.409A5.833,5.833,0,0,0,406.235,276.973Z" transform="translate(-394.941 -267.956)" fill="#494948"/>
      <path id="Path_26643" data-name="Path 26643" d="M986.865,276.929H987.9c.154,0,.235.01.256.2a1.173,1.173,0,0,0,.8,1,2.932,2.932,0,0,0,2.241-.031.685.685,0,0,0,.481-.665.818.818,0,0,0-.43-.788,4.817,4.817,0,0,0-1.228-.409,10.379,10.379,0,0,1-2.579-.88,2.589,2.589,0,0,1-1.31-3.377,2.309,2.309,0,0,1,1.279-1.279,6.158,6.158,0,0,1,4.615-.123,2.839,2.839,0,0,1,1.8,2.579c.021.143-.01.2-.164.2q-1-.015-2,0c-.143,0-.174-.061-.215-.184a1.256,1.256,0,0,0-1.3-1.054,3.481,3.481,0,0,0-1.259.092.684.684,0,0,0-.573.594.707.707,0,0,0,.42.747,10.927,10.927,0,0,0,2.016.7c.512.154,1.023.3,1.535.461a2.3,2.3,0,0,1,1.811,2.241,2.756,2.756,0,0,1-1.443,2.712,5.116,5.116,0,0,1-2.579.563,5.813,5.813,0,0,1-2.661-.522,3.065,3.065,0,0,1-1.811-2.446c-.031-.235-.01-.358.266-.338C986.22,276.949,986.538,276.929,986.865,276.929Z" transform="translate(-916.164 -267.912)" fill="#494948"/>
      <path id="Path_26644" data-name="Path 26644" d="M506.429,274.317c-.3,0-.6-.01-.9,0-.235.01-.338-.041-.409-.307a1.536,1.536,0,0,0-1.259-1.218,1.662,1.662,0,0,0-1.709.5,2.256,2.256,0,0,0-.471,1.013,6.079,6.079,0,0,0,.051,2.681,2.445,2.445,0,0,0,.4.86,1.534,1.534,0,0,0,1.689.665,1.564,1.564,0,0,0,1.289-1.3c.041-.194.113-.235.286-.235q.967.015,1.934,0c.266-.01.287.092.246.317a4.153,4.153,0,0,1-3.7,3.357,5.16,5.16,0,0,1-1.586-.092,3.707,3.707,0,0,1-2.763-2.518,7.286,7.286,0,0,1-.092-4.667,3.507,3.507,0,0,1,2.876-2.579,4.582,4.582,0,0,1,4.2.982,3.638,3.638,0,0,1,1.126,2.344c.02.2-.051.235-.215.225A7.758,7.758,0,0,0,506.429,274.317Z" transform="translate(-479.446 -268.34)" fill="#494948"/>
      <path id="Path_26645" data-name="Path 26645" d="M1078.926,254.7a1.663,1.663,0,1,1-1.678-1.7A1.672,1.672,0,0,1,1078.926,254.7Zm-1.668,1.371a1.35,1.35,0,0,0,1.341-1.361,1.331,1.331,0,1,0-1.341,1.361Z" transform="translate(-996.957 -252.476)" fill="#494948"/>
      <path id="Path_26646" data-name="Path 26646" d="M1085.869,261.429a1.3,1.3,0,0,1,.348.542c.031.092.194.215.051.276a.308.308,0,0,1-.44-.1c-.061-.133-.133-.266-.194-.389a.248.248,0,0,0-.307-.143c-.143.041-.061.174-.082.256a.684.684,0,0,0,0,.2c.021.184-.072.2-.215.2-.123,0-.246.01-.235-.184.01-.481.01-.952,0-1.433,0-.133.051-.184.174-.184a5.743,5.743,0,0,1,.594.01c.225.01.46.041.542.307A.49.49,0,0,1,1085.869,261.429Zm-.624-.368c-.02.133.01.235.184.215.154-.01.266-.072.256-.235s-.123-.215-.276-.225C1085.224,260.795,1085.245,260.928,1085.245,261.061Z" transform="translate(-1005.211 -259.187)" fill="#494948"/>
    </g>
    <g id="Group_10309" data-name="Group 10309" transform="translate(0 0)">
      <path id="Path_26647" data-name="Path 26647" d="M178.11,97.576a26.437,26.437,0,0,1,5.465.358,10.081,10.081,0,0,1,5.2,2.538,8.488,8.488,0,0,1,2.436,5.311,9.846,9.846,0,0,1-.4,4.462,7.474,7.474,0,0,1-3.96,4.421c-.225.113-.348.082-.481-.143-.6-1-1.238-2-1.852-2.988-.051-.092-.174-.174.01-.276a4.139,4.139,0,0,0,1.924-2.814,5.46,5.46,0,0,0-.235-3.756,4.926,4.926,0,0,0-2.712-2.4,7.315,7.315,0,0,0-2.917-.583c-.829.01-1.658,0-2.487,0C178.11,100.329,178.11,98.958,178.11,97.576Z" transform="translate(-169.275 -92.377)" fill="#494948"/>
      <path id="Path_26648" data-name="Path 26648" d="M178.2,237.571V233.6h4.738a.407.407,0,0,1,.409.225q3.515,6.171,7.031,12.352c.031.051.092.092.061.184h-2.333c-.686,0-1.371-.02-2.067-.02a.432.432,0,0,1-.45-.256c-1.566-2.7-3.152-5.4-4.708-8.105a.661.661,0,0,0-.675-.4C179.53,237.612,178.865,237.581,178.2,237.571Z" transform="translate(-169.364 -214.483)" fill="#494948"/>
      <path id="Path_26649" data-name="Path 26649" d="M147.5,52V69.9c-.01,1.187-.01,2.364-.02,3.551,0,1.658-.01,3.316,0,4.974,0,.246-.072.307-.307.307q-1.259-.015-2.518,0c-.2,0-.307-.041-.317-.276-.082-2.323-.184-4.646-.276-6.969-.031-.675-.051-1.351-.061-2.037a2.058,2.058,0,0,1,.808-1.74,3.984,3.984,0,0,0,1.422-4.042,14.712,14.712,0,0,0-1.156-3.449,12.794,12.794,0,0,1,.747-11.462A8.707,8.707,0,0,1,147.5,46.8Z" transform="translate(-138.662 -46.8)" fill="#e6ca1e"/>
      <path id="Path_26650" data-name="Path 26650" d="M93.678,127.042v-7.46a1.835,1.835,0,0,0-.184-.808,12.791,12.791,0,0,0-.942-1.617,3.52,3.52,0,0,1-.675-2.037c-.051-1.842.051-3.684.082-5.516,0-.154.051-.2.2-.2s.276-.01.3.215c.092,1.228.194,2.446.3,3.664.041.532.082,1.075.133,1.607.01.1-.031.256.164.256s.154-.143.154-.246c.072-1.586.143-3.183.2-4.769,0-.113.01-.215.01-.327,0-.092.01-.174.133-.184.143-.01.143.082.154.184.041.675.092,1.351.143,2.026.061.931.133,1.863.2,2.8.01.133-.02.3.2.3.256,0,.153-.194.153-.307.041-1.617.072-3.224.113-4.841,0-.113-.041-.256.154-.256s.123.154.133.246c.164,1.678.327,3.367.481,5.045a.8.8,0,0,1,.02.164c.01.1.061.143.164.153.133.01.123-.082.133-.174.041-.655.072-1.31.113-1.965.061-1.105.123-2.21.174-3.316.01-.143-.01-.266.215-.266.2,0,.246.082.256.266.1,1.719.194,3.439.327,5.158a1.667,1.667,0,0,1-.45,1.32,6.786,6.786,0,0,0-1.586,3.265,4.6,4.6,0,0,0,1.187,4.411,2.971,2.971,0,0,1,.86,2.344c-.153,2.845-.368,5.69-.583,8.535-.02.2-.113.215-.266.215-.634-.01-1.269-.02-1.9,0-.246.01-.307-.072-.3-.307.01-1.76.01-3.531.01-5.291v-2.262C93.657,127.042,93.667,127.042,93.678,127.042Z" transform="translate(-91.862 -102.993)" fill="#494948"/>
    </g>
  </g>
  <g id="Group_10311" data-name="Group 10311" transform="translate(29.805 35.429)">
    <path id="Path_26651" data-name="Path 26651" d="M385.484,395.551h-1.678v1.259h1.955v.563H383.1V393.3h2.651v.573h-1.934V395h1.678v.553Z" transform="translate(-383.1 -393.269)" fill="#e6ca1e"/>
    <path id="Path_26652" data-name="Path 26652" d="M411.151,405.57l.645-2.17h.706l-1.054,3.029h-.594L409.8,403.4h.706Z" transform="translate(-407.068 -402.336)" fill="#e6ca1e"/>
    <path id="Path_26653" data-name="Path 26653" d="M439.253,406.042a1.587,1.587,0,0,1-.6-.113,1.4,1.4,0,0,1-.461-.307,1.343,1.343,0,0,1-.287-.461,1.741,1.741,0,0,1-.1-.583v-.113a1.853,1.853,0,0,1,.1-.645,1.447,1.447,0,0,1,.287-.491,1.385,1.385,0,0,1,.44-.317,1.353,1.353,0,0,1,.542-.113,1.4,1.4,0,0,1,.573.113,1,1,0,0,1,.4.307,1.356,1.356,0,0,1,.235.471,2.208,2.208,0,0,1,.082.6v.287h-1.975a1.171,1.171,0,0,0,.072.328.733.733,0,0,0,.164.256.826.826,0,0,0,.246.174.8.8,0,0,0,.317.061.874.874,0,0,0,.44-.1,1.207,1.207,0,0,0,.327-.276l.368.348a1.726,1.726,0,0,1-.184.215.965.965,0,0,1-.256.184,2.424,2.424,0,0,1-.327.133A1.229,1.229,0,0,1,439.253,406.042Zm-.072-2.589a.561.561,0,0,0-.45.194,1.047,1.047,0,0,0-.215.542h1.3v-.051a1.917,1.917,0,0,0-.041-.256.666.666,0,0,0-.113-.225.53.53,0,0,0-.184-.153A.951.951,0,0,0,439.182,403.453Z" transform="translate(-432.202 -401.887)" fill="#e6ca1e"/>
    <path id="Path_26654" data-name="Path 26654" d="M468.914,403.051l.02.348a1.062,1.062,0,0,1,.379-.3,1.158,1.158,0,0,1,.5-.1,1.256,1.256,0,0,1,.4.061.749.749,0,0,1,.307.194.773.773,0,0,1,.194.348,1.89,1.89,0,0,1,.072.522v1.955h-.675v-1.965a1,1,0,0,0-.031-.266.415.415,0,0,0-.1-.174.327.327,0,0,0-.164-.092.749.749,0,0,0-.225-.031.624.624,0,0,0-.368.1.717.717,0,0,0-.246.276v2.159H468.3v-3.029h.614Z" transform="translate(-459.581 -401.977)" fill="#e6ca1e"/>
    <path id="Path_26655" data-name="Path 26655" d="M496.377,396.21v.737h.532v.5h-.532v1.689a.64.64,0,0,0,.021.164.34.34,0,0,0,.061.1.32.32,0,0,0,.1.051.5.5,0,0,0,.123.01.584.584,0,0,0,.133-.01.885.885,0,0,0,.1-.02v.522c-.051.01-.113.031-.184.041a1.726,1.726,0,0,1-.256.02.97.97,0,0,1-.307-.041.649.649,0,0,1-.246-.143.74.74,0,0,1-.164-.266,1.169,1.169,0,0,1-.061-.4v-1.729h-.5v-.5h.5V396.2h.675Z" transform="translate(-483.728 -395.873)" fill="#e6ca1e"/>
    <path id="Path_26656" data-name="Path 26656" d="M516.811,405.162a.521.521,0,0,0-.02-.133.321.321,0,0,0-.092-.113.69.69,0,0,0-.194-.1,2.751,2.751,0,0,0-.328-.092,2.49,2.49,0,0,1-.44-.123,1.316,1.316,0,0,1-.338-.184.768.768,0,0,1-.225-.256.687.687,0,0,1-.082-.338.826.826,0,0,1,.082-.348.914.914,0,0,1,.235-.3,1.274,1.274,0,0,1,.368-.2,1.437,1.437,0,0,1,.481-.072,1.628,1.628,0,0,1,.512.072,1.032,1.032,0,0,1,.379.2.773.773,0,0,1,.235.307.931.931,0,0,1,.082.379h-.675a.522.522,0,0,0-.031-.174.34.34,0,0,0-.1-.143.446.446,0,0,0-.164-.1.76.76,0,0,0-.46-.01.54.54,0,0,0-.154.082.279.279,0,0,0-.092.123.326.326,0,0,0-.031.143.283.283,0,0,0,.031.133.245.245,0,0,0,.1.1,1.168,1.168,0,0,0,.194.092,3.157,3.157,0,0,0,.307.082,4.374,4.374,0,0,1,.471.133,1.232,1.232,0,0,1,.348.184.642.642,0,0,1,.215.256.757.757,0,0,1,.072.348.882.882,0,0,1-.082.368.939.939,0,0,1-.246.287,1.057,1.057,0,0,1-.389.184,1.912,1.912,0,0,1-.5.072,1.564,1.564,0,0,1-.553-.092,1.087,1.087,0,0,1-.4-.235.84.84,0,0,1-.246-.327A.96.96,0,0,1,515,405h.665a.714.714,0,0,0,.061.235.514.514,0,0,0,.143.154.465.465,0,0,0,.194.082.8.8,0,0,0,.225.031.653.653,0,0,0,.409-.1A.243.243,0,0,0,516.811,405.162Z" transform="translate(-501.502 -401.887)" fill="#e6ca1e"/>
    <path id="Path_26657" data-name="Path 26657" d="M558.811,393.21l1.177,3.121,1.177-3.121h.911v4.073h-.706v-1.341l.072-1.8-1.208,3.142h-.5l-1.2-3.142.072,1.791v1.341H557.9V393.2h.911Z" transform="translate(-540.011 -393.18)" fill="#e6ca1e"/>
    <path id="Path_26658" data-name="Path 26658" d="M606.124,406.08c-.02-.031-.031-.082-.051-.123l-.031-.154a.652.652,0,0,1-.153.133.8.8,0,0,1-.184.113,1.058,1.058,0,0,1-.215.072,1.01,1.01,0,0,1-.246.031,1.13,1.13,0,0,1-.42-.072.959.959,0,0,1-.327-.194.873.873,0,0,1-.3-.645.949.949,0,0,1,.092-.43.981.981,0,0,1,.266-.317,1.279,1.279,0,0,1,.43-.194,2.55,2.55,0,0,1,.583-.061H606v-.194a.519.519,0,0,0-.133-.379.542.542,0,0,0-.4-.143.681.681,0,0,0-.215.031.611.611,0,0,0-.164.082.422.422,0,0,0-.1.133.429.429,0,0,0-.041.164h-.665a.708.708,0,0,1,.092-.348.977.977,0,0,1,.246-.3,1.4,1.4,0,0,1,.389-.2,1.623,1.623,0,0,1,.512-.082,1.692,1.692,0,0,1,.471.061,1.057,1.057,0,0,1,.368.194.89.89,0,0,1,.246.327,1.041,1.041,0,0,1,.082.45v1.341a1.638,1.638,0,0,0,.112.655v.051Zm-.747-.491a.68.68,0,0,0,.215-.031.774.774,0,0,0,.327-.194,1.15,1.15,0,0,0,.1-.133v-.573h-.368a.989.989,0,0,0-.573.133.447.447,0,0,0-.194.368.478.478,0,0,0,.031.174.312.312,0,0,0,.092.133.385.385,0,0,0,.153.092A.726.726,0,0,0,605.377,405.589Z" transform="translate(-581.573 -401.977)" fill="#e6ca1e"/>
    <path id="Path_26659" data-name="Path 26659" d="M635.514,403.051l.02.348a1.063,1.063,0,0,1,.379-.3,1.158,1.158,0,0,1,.5-.1,1.255,1.255,0,0,1,.4.061.748.748,0,0,1,.307.194.772.772,0,0,1,.194.348,1.889,1.889,0,0,1,.072.522v1.955h-.675v-1.965a1,1,0,0,0-.031-.266.414.414,0,0,0-.1-.174.327.327,0,0,0-.164-.092.749.749,0,0,0-.225-.031.624.624,0,0,0-.368.1.717.717,0,0,0-.246.276v2.159H634.9v-3.029h.614Z" transform="translate(-609.132 -401.977)" fill="#e6ca1e"/>
    <path id="Path_26660" data-name="Path 26660" d="M665.824,406.08c-.02-.031-.031-.082-.051-.123l-.031-.154a.655.655,0,0,1-.154.133.8.8,0,0,1-.184.113,1.059,1.059,0,0,1-.215.072,1.01,1.01,0,0,1-.246.031,1.129,1.129,0,0,1-.42-.072.957.957,0,0,1-.328-.194.873.873,0,0,1-.3-.645.95.95,0,0,1,.092-.43.981.981,0,0,1,.266-.317,1.28,1.28,0,0,1,.43-.194,2.55,2.55,0,0,1,.583-.061h.43v-.194a.52.52,0,0,0-.133-.379.543.543,0,0,0-.4-.143.679.679,0,0,0-.215.031.613.613,0,0,0-.164.082.421.421,0,0,0-.1.133.428.428,0,0,0-.041.164h-.675a.708.708,0,0,1,.092-.348.976.976,0,0,1,.246-.3,1.4,1.4,0,0,1,.389-.2,1.623,1.623,0,0,1,.512-.082,1.692,1.692,0,0,1,.471.061,1.057,1.057,0,0,1,.368.194.892.892,0,0,1,.246.327,1.041,1.041,0,0,1,.082.45v1.341a1.638,1.638,0,0,0,.113.655v.051Zm-.747-.491a.679.679,0,0,0,.215-.031.768.768,0,0,0,.184-.082.777.777,0,0,0,.143-.113,1.169,1.169,0,0,0,.1-.133v-.573h-.368a.989.989,0,0,0-.573.133.447.447,0,0,0-.194.368.48.48,0,0,0,.031.174.313.313,0,0,0,.092.133.386.386,0,0,0,.154.092A.679.679,0,0,0,665.077,405.589Z" transform="translate(-635.164 -401.977)" fill="#e6ca1e"/>
    <path id="Path_26661" data-name="Path 26661" d="M693.2,404.456a2.5,2.5,0,0,1,.082-.634,1.234,1.234,0,0,1,.246-.491,1.121,1.121,0,0,1,.379-.317,1.163,1.163,0,0,1,.5-.113,1.1,1.1,0,0,1,.471.092.953.953,0,0,1,.338.266l.031-.307h.614V405.9a1.283,1.283,0,0,1-.1.542,1.26,1.26,0,0,1-.276.4,1.122,1.122,0,0,1-.43.246,1.643,1.643,0,0,1-.553.082,1.421,1.421,0,0,1-.276-.031c-.1-.02-.2-.051-.307-.082a1.631,1.631,0,0,1-.3-.153,1.07,1.07,0,0,1-.246-.235l.317-.409a1.06,1.06,0,0,0,.368.287.945.945,0,0,0,.409.082.748.748,0,0,0,.532-.184.69.69,0,0,0,.195-.542v-.2a1.028,1.028,0,0,1-.338.246,1.042,1.042,0,0,1-.45.082,1.164,1.164,0,0,1-.5-.113,1.034,1.034,0,0,1-.379-.317,1.638,1.638,0,0,1-.246-.481,1.938,1.938,0,0,1-.082-.614Zm.676.051a1.534,1.534,0,0,0,.041.379,1.065,1.065,0,0,0,.123.307.717.717,0,0,0,.215.215.635.635,0,0,0,.317.082.716.716,0,0,0,.379-.092.809.809,0,0,0,.235-.256v-1.33a.809.809,0,0,0-.235-.256.678.678,0,0,0-.368-.092.635.635,0,0,0-.317.082.543.543,0,0,0-.215.215.791.791,0,0,0-.123.317,2.275,2.275,0,0,0-.041.389v.041Z" transform="translate(-661.465 -401.887)" fill="#e6ca1e"/>
    <path id="Path_26662" data-name="Path 26662" d="M725.553,406.042a1.587,1.587,0,0,1-.6-.113,1.4,1.4,0,0,1-.461-.307,1.343,1.343,0,0,1-.286-.461,1.741,1.741,0,0,1-.1-.583v-.113a1.851,1.851,0,0,1,.1-.645,1.447,1.447,0,0,1,.286-.491,1.385,1.385,0,0,1,.44-.317,1.352,1.352,0,0,1,.542-.113,1.394,1.394,0,0,1,.573.113,1,1,0,0,1,.4.307,1.357,1.357,0,0,1,.235.471,2.209,2.209,0,0,1,.082.6v.287h-1.975a1.171,1.171,0,0,0,.072.328.734.734,0,0,0,.164.256.825.825,0,0,0,.246.174.8.8,0,0,0,.317.061.874.874,0,0,0,.44-.1,1.207,1.207,0,0,0,.328-.276l.368.348a1.71,1.71,0,0,1-.184.215.965.965,0,0,1-.256.184,1.979,1.979,0,0,1-.327.133A1.6,1.6,0,0,1,725.553,406.042Zm-.082-2.589a.561.561,0,0,0-.45.194,1.047,1.047,0,0,0-.215.542h1.3v-.051a1.907,1.907,0,0,0-.041-.256.6.6,0,0,0-.3-.379A.9.9,0,0,0,725.471,403.453Z" transform="translate(-689.203 -401.887)" fill="#e6ca1e"/>
    <path id="Path_26663" data-name="Path 26663" d="M755.035,402.961l.02.317a1.245,1.245,0,0,1,.368-.276,1.288,1.288,0,0,1,.5-.1,1.085,1.085,0,0,1,.491.113.767.767,0,0,1,.338.358,1.09,1.09,0,0,1,.379-.338,1.146,1.146,0,0,1,.542-.123,1.34,1.34,0,0,1,.42.061.789.789,0,0,1,.307.194.883.883,0,0,1,.194.348,1.87,1.87,0,0,1,.072.512v1.965h-.675v-1.965a.714.714,0,0,0-.041-.276.344.344,0,0,0-.113-.174.472.472,0,0,0-.174-.092.767.767,0,0,0-.225-.02.58.58,0,0,0-.379.123.643.643,0,0,0-.2.327v2.077H756.2v-1.955a.693.693,0,0,0-.041-.266.428.428,0,0,0-.113-.174.358.358,0,0,0-.174-.092,1.5,1.5,0,0,0-.225-.031.642.642,0,0,0-.358.092.626.626,0,0,0-.215.246V406H754.4v-3.029h.634Z" transform="translate(-716.402 -401.887)" fill="#e6ca1e"/>
    <path id="Path_26664" data-name="Path 26664" d="M802.553,406.042a1.587,1.587,0,0,1-.6-.113,1.4,1.4,0,0,1-.461-.307,1.344,1.344,0,0,1-.287-.461,1.743,1.743,0,0,1-.1-.583v-.113a1.854,1.854,0,0,1,.1-.645,1.448,1.448,0,0,1,.287-.491,1.386,1.386,0,0,1,.44-.317,1.353,1.353,0,0,1,.542-.113,1.4,1.4,0,0,1,.573.113,1,1,0,0,1,.4.307,1.355,1.355,0,0,1,.235.471,2.209,2.209,0,0,1,.082.6v.287h-1.975a1.171,1.171,0,0,0,.072.328.734.734,0,0,0,.164.256.827.827,0,0,0,.246.174.8.8,0,0,0,.317.061.874.874,0,0,0,.44-.1,1.206,1.206,0,0,0,.328-.276l.368.348a1.716,1.716,0,0,1-.184.215.966.966,0,0,1-.256.184,1.982,1.982,0,0,1-.328.133A1.6,1.6,0,0,1,802.553,406.042Zm-.082-2.589a.561.561,0,0,0-.45.194,1.047,1.047,0,0,0-.215.542h1.3v-.051a1.917,1.917,0,0,0-.041-.256.6.6,0,0,0-.3-.379A.9.9,0,0,0,802.471,403.453Z" transform="translate(-758.323 -401.887)" fill="#e6ca1e"/>
    <path id="Path_26665" data-name="Path 26665" d="M832.114,403.051l.021.348a1.062,1.062,0,0,1,.379-.3,1.158,1.158,0,0,1,.5-.1,1.256,1.256,0,0,1,.4.061.75.75,0,0,1,.307.194.771.771,0,0,1,.194.348,1.886,1.886,0,0,1,.072.522v1.955h-.675v-1.965a1,1,0,0,0-.031-.266.412.412,0,0,0-.1-.174.326.326,0,0,0-.164-.092.749.749,0,0,0-.225-.031.623.623,0,0,0-.368.1.717.717,0,0,0-.246.276v2.159H831.5v-3.029h.614Z" transform="translate(-785.612 -401.977)" fill="#e6ca1e"/>
    <path id="Path_26666" data-name="Path 26666" d="M859.677,396.21v.737h.532v.5h-.532v1.689a.643.643,0,0,0,.02.164.345.345,0,0,0,.061.1.32.32,0,0,0,.1.051.5.5,0,0,0,.123.01.541.541,0,0,0,.133-.01.894.894,0,0,0,.1-.02v.522c-.051.01-.113.031-.184.041a1.727,1.727,0,0,1-.256.02.971.971,0,0,1-.307-.041.648.648,0,0,1-.246-.143.739.739,0,0,1-.164-.266,1.171,1.171,0,0,1-.061-.4v-1.729h-.5v-.5h.5V396.2h.675Z" transform="translate(-809.849 -395.873)" fill="#e6ca1e"/>
    <path id="Path_26667" data-name="Path 26667" d="M892.884,396.05a.475.475,0,0,0-.041-.215.418.418,0,0,0-.133-.174,1.22,1.22,0,0,0-.266-.154,3.041,3.041,0,0,0-.44-.154c-.194-.061-.368-.123-.542-.194a1.83,1.83,0,0,1-.42-.256,1.059,1.059,0,0,1-.276-.338,1,1,0,0,1-.1-.44.941.941,0,0,1,.1-.45,1.09,1.09,0,0,1,.3-.358,1.225,1.225,0,0,1,.461-.235,2.059,2.059,0,0,1,.583-.082,1.643,1.643,0,0,1,.614.1,1.269,1.269,0,0,1,.461.266,1.2,1.2,0,0,1,.389.88h-.706a.78.78,0,0,0-.051-.276.609.609,0,0,0-.143-.215.579.579,0,0,0-.246-.143,1.136,1.136,0,0,0-.348-.051,1.062,1.062,0,0,0-.327.041.925.925,0,0,0-.225.113.473.473,0,0,0-.133.184.55.55,0,0,0-.041.225.449.449,0,0,0,.215.379,2.118,2.118,0,0,0,.655.276,4.265,4.265,0,0,1,.594.225,1.862,1.862,0,0,1,.42.276.987.987,0,0,1,.246.348,1.2,1.2,0,0,1,.082.44.955.955,0,0,1-.1.461,1.046,1.046,0,0,1-.287.348,1.382,1.382,0,0,1-.46.225,2.21,2.21,0,0,1-.6.082,2.293,2.293,0,0,1-.583-.082,1.483,1.483,0,0,1-.512-.246,1.246,1.246,0,0,1-.368-.4,1.122,1.122,0,0,1-.143-.563h.706a.647.647,0,0,0,.072.327.662.662,0,0,0,.184.225.866.866,0,0,0,.276.133,1.3,1.3,0,0,0,.348.041.848.848,0,0,0,.553-.153A.469.469,0,0,0,892.884,396.05Z" transform="translate(-838.574 -393)" fill="#e6ca1e"/>
    <path id="Path_26668" data-name="Path 26668" d="M923.571,405.557l.614-2.057h.727l-1.2,3.49a1.688,1.688,0,0,1-.113.246.7.7,0,0,1-.184.246,1.051,1.051,0,0,1-.266.194.862.862,0,0,1-.379.082,1.009,1.009,0,0,1-.174-.02c-.062-.01-.113-.021-.154-.031v-.522c.02,0,.041.01.061.01h.061a1.274,1.274,0,0,0,.215-.02.47.47,0,0,0,.164-.072.465.465,0,0,0,.123-.123,1.163,1.163,0,0,0,.092-.194l.1-.256L922.2,403.52h.737Z" transform="translate(-867.03 -402.425)" fill="#e6ca1e"/>
    <path id="Path_26669" data-name="Path 26669" d="M952.311,405.162a.513.513,0,0,0-.021-.133.319.319,0,0,0-.092-.113.688.688,0,0,0-.194-.1,2.751,2.751,0,0,0-.328-.092,2.49,2.49,0,0,1-.44-.123,1.316,1.316,0,0,1-.338-.184.769.769,0,0,1-.225-.256.688.688,0,0,1-.082-.338.828.828,0,0,1,.082-.348.915.915,0,0,1,.235-.3,1.273,1.273,0,0,1,.368-.2,1.438,1.438,0,0,1,.481-.072,1.628,1.628,0,0,1,.512.072,1.033,1.033,0,0,1,.379.2.775.775,0,0,1,.235.307.931.931,0,0,1,.082.379h-.676a.518.518,0,0,0-.031-.174.339.339,0,0,0-.1-.143.445.445,0,0,0-.164-.1.76.76,0,0,0-.46-.01.541.541,0,0,0-.154.082.279.279,0,0,0-.092.123.326.326,0,0,0-.031.143.283.283,0,0,0,.031.133.245.245,0,0,0,.1.1,1.164,1.164,0,0,0,.194.092,3.16,3.16,0,0,0,.307.082,4.38,4.38,0,0,1,.471.133,1.233,1.233,0,0,1,.348.184.642.642,0,0,1,.215.256.757.757,0,0,1,.072.348.881.881,0,0,1-.082.368.937.937,0,0,1-.246.287,1.056,1.056,0,0,1-.389.184,1.913,1.913,0,0,1-.5.072,1.564,1.564,0,0,1-.552-.092,1.086,1.086,0,0,1-.4-.235.839.839,0,0,1-.246-.327A.96.96,0,0,1,950.5,405h.665a.716.716,0,0,0,.061.235.513.513,0,0,0,.143.154.465.465,0,0,0,.194.082.8.8,0,0,0,.225.031.654.654,0,0,0,.409-.1A.243.243,0,0,0,952.311,405.162Z" transform="translate(-892.434 -401.887)" fill="#e6ca1e"/>
    <path id="Path_26670" data-name="Path 26670" d="M977.677,396.21v.737h.532v.5h-.532v1.689a.641.641,0,0,0,.02.164.342.342,0,0,0,.061.1.32.32,0,0,0,.1.051.5.5,0,0,0,.123.01.542.542,0,0,0,.133-.01.887.887,0,0,0,.1-.02v.522c-.051.01-.113.031-.184.041a1.726,1.726,0,0,1-.256.02.971.971,0,0,1-.307-.041.649.649,0,0,1-.246-.143.739.739,0,0,1-.164-.266,1.168,1.168,0,0,1-.061-.4v-1.729h-.5v-.5h.5V396.2h.675Z" transform="translate(-915.773 -395.873)" fill="#e6ca1e"/>
    <path id="Path_26671" data-name="Path 26671" d="M997.653,406.042a1.587,1.587,0,0,1-.6-.113,1.4,1.4,0,0,1-.461-.307,1.343,1.343,0,0,1-.287-.461,1.741,1.741,0,0,1-.1-.583v-.113a1.854,1.854,0,0,1,.1-.645,1.447,1.447,0,0,1,.287-.491,1.385,1.385,0,0,1,.44-.317,1.353,1.353,0,0,1,.542-.113,1.4,1.4,0,0,1,.573.113,1,1,0,0,1,.4.307,1.356,1.356,0,0,1,.235.471,2.209,2.209,0,0,1,.082.6v.287H996.9a1.168,1.168,0,0,0,.072.328.731.731,0,0,0,.164.256.825.825,0,0,0,.246.174.8.8,0,0,0,.317.061.874.874,0,0,0,.44-.1,1.208,1.208,0,0,0,.328-.276l.368.348a1.711,1.711,0,0,1-.184.215.963.963,0,0,1-.256.184,1.977,1.977,0,0,1-.327.133A1.681,1.681,0,0,1,997.653,406.042Zm-.082-2.589a.561.561,0,0,0-.45.194,1.046,1.046,0,0,0-.215.542h1.3v-.051a1.907,1.907,0,0,0-.041-.256.6.6,0,0,0-.3-.379A.855.855,0,0,0,997.571,403.453Z" transform="translate(-933.457 -401.887)" fill="#e6ca1e"/>
    <path id="Path_26672" data-name="Path 26672" d="M1027.055,402.961l.021.317a1.24,1.24,0,0,1,.368-.276,1.287,1.287,0,0,1,.5-.1,1.085,1.085,0,0,1,.491.113.768.768,0,0,1,.338.358,1.088,1.088,0,0,1,.379-.338,1.145,1.145,0,0,1,.542-.123,1.339,1.339,0,0,1,.42.061.79.79,0,0,1,.307.194.881.881,0,0,1,.194.348,1.871,1.871,0,0,1,.072.512v1.965h-.675v-1.965a.714.714,0,0,0-.041-.276.345.345,0,0,0-.112-.174.473.473,0,0,0-.174-.092.767.767,0,0,0-.225-.02.58.58,0,0,0-.379.123.643.643,0,0,0-.2.327v2.077h-.675v-1.955a.694.694,0,0,0-.041-.266.428.428,0,0,0-.113-.174.358.358,0,0,0-.174-.092,1.491,1.491,0,0,0-.225-.031.643.643,0,0,0-.358.092.626.626,0,0,0-.215.246V406h-.676v-3.029h.655Z" transform="translate(-960.567 -401.887)" fill="#e6ca1e"/>
  </g>
</svg>
